<svg width="419" height="471" viewBox="0 0 419 471" fill="none" xmlns="http://www.w3.org/2000/svg">
<g clip-path="url(#clip0_345_15563)">
<path d="M356.56 476.564C515.747 476.564 468.7 403.449 437.426 342.575C416.366 301.585 419.001 245.071 423.234 210.497C444.186 39.4467 391.772 -1.55697 335.701 9.74326C218.776 33.2989 322.262 244.842 324.345 295.343C324.345 295.343 330.312 306.778 301.645 313.531C263.047 322.612 258.504 297.617 258.504 297.617C244.876 247.627 253.719 210.053 209.799 208.479C165.878 206.905 130.747 266.985 167.343 332.93C203.939 398.875 181.844 447.277 140.181 423.789C98.5183 400.301 49.7323 413.525 50.0011 450.156C49.9992 453.966 50.7516 457.738 52.215 461.255C53.6784 464.772 55.8237 467.964 58.5268 470.646C61.23 473.328 64.4374 475.447 67.9637 476.881C71.49 478.314 75.2652 479.034 79.0711 478.999L356.56 476.564Z" fill="#738260"/>
<path d="M326.005 298.841C326.005 308.983 310.601 317.205 291.6 317.205C272.6 317.205 257.196 308.983 257.196 298.841C257.196 288.698 286.998 274.901 305.998 274.901C324.998 274.901 326.005 288.698 326.005 298.841Z" fill="#D88910"/>
<path d="M313.325 297.108L318.571 291.183C318.597 291.149 318.633 291.124 318.674 291.113C318.715 291.102 318.759 291.106 318.798 291.123C318.837 291.14 318.869 291.17 318.889 291.208C318.909 291.246 318.915 291.289 318.907 291.331L318.236 297.726C318.234 297.75 318.228 297.775 318.217 297.797C318.206 297.819 318.19 297.839 318.172 297.855C318.153 297.871 318.131 297.884 318.107 297.891C318.084 297.899 318.059 297.902 318.035 297.9L313.459 297.417C313.424 297.415 313.39 297.403 313.361 297.384C313.333 297.364 313.31 297.336 313.296 297.304C313.282 297.272 313.277 297.236 313.282 297.202C313.288 297.167 313.302 297.135 313.325 297.108Z" fill="#E2C0A3"/>
<path d="M300.282 295.039L297.102 287.435C297.102 287.403 297.089 287.372 297.066 287.35C297.043 287.327 297.013 287.314 296.981 287.314C296.949 287.314 296.918 287.327 296.895 287.35C296.873 287.372 296.86 287.403 296.86 287.435L295.37 293.978C295.367 293.993 295.366 294.01 295.369 294.026C295.371 294.042 295.377 294.058 295.386 294.072C295.395 294.085 295.406 294.097 295.42 294.107C295.433 294.116 295.448 294.122 295.464 294.125L300.134 295.2C300.156 295.207 300.179 295.207 300.201 295.201C300.223 295.195 300.243 295.183 300.259 295.166C300.274 295.149 300.285 295.128 300.289 295.106C300.293 295.083 300.29 295.06 300.282 295.039Z" fill="#E2C0A3"/>
<path d="M298.081 301.192C298.808 301.192 299.396 300.602 299.396 299.875C299.396 299.148 298.808 298.558 298.081 298.558C297.355 298.558 296.766 299.148 296.766 299.875C296.766 300.602 297.355 301.192 298.081 301.192Z" fill="#2B5E8E"/>
<path d="M314.398 303.999C315.124 303.999 315.713 303.41 315.713 302.683C315.713 301.956 315.124 301.366 314.398 301.366C313.672 301.366 313.083 301.956 313.083 302.683C313.083 303.41 313.672 303.999 314.398 303.999Z" fill="#2B5E8E"/>
<path d="M305.515 304.094C305.515 304.094 301.57 307.304 299.45 304.564L305.515 304.094Z" fill="#F4E8DA"/>
<path d="M305.301 303.959C305.697 304.979 306.421 305.839 307.358 306.403C308.296 306.967 309.394 307.204 310.48 307.076L305.301 303.959Z" fill="#F4E8DA"/>
<path d="M307.367 301.797L304.281 301.286C304.265 301.28 304.247 301.28 304.231 301.285C304.215 301.289 304.2 301.299 304.19 301.313C304.179 301.326 304.174 301.342 304.173 301.359C304.172 301.376 304.177 301.393 304.187 301.407L305.327 304.094C305.335 304.105 305.345 304.114 305.356 304.12C305.368 304.127 305.381 304.13 305.394 304.13C305.408 304.13 305.421 304.127 305.432 304.12C305.444 304.114 305.454 304.105 305.461 304.094L307.42 301.904C307.425 301.883 307.423 301.86 307.413 301.841C307.403 301.821 307.387 301.806 307.367 301.797Z" fill="#D15428"/>
<path d="M272.211 291.855C272.211 291.855 262.469 297.618 269.057 302.683C275.646 307.748 295.612 305.37 293.948 317.165" stroke="#A05E0A" stroke-width="0.5" stroke-miterlimit="10" stroke-linecap="round"/>
<path d="M295.344 307.103C295.344 307.103 304.429 310.233 302.483 316.265" stroke="#A05E0A" stroke-width="0.5" stroke-miterlimit="10" stroke-linecap="round"/>
</g>
<defs>
<clipPath id="clip0_345_15563">
<rect width="419" height="471" fill="white"/>
</clipPath>
</defs>
</svg>
